<svg width="83" height="80" viewBox="0 0 83 80" fill="none" xmlns="http://www.w3.org/2000/svg">
<g clip-path="url(#clip0)">
<mask id="path-1-inside-1" fill="white">
<path d="M41.5 0C36.916 0 33.2 3.58167 33.2 8C33.2 12.4183 36.916 16 41.5 16C46.0822 15.9957 49.7956 12.4165 49.8001 8C49.8001 3.58167 46.0841 0 41.5 0ZM41.5 13.3333C38.4441 13.3333 35.9667 10.9455 35.9667 8C35.9667 5.0545 38.4441 2.66667 41.5 2.66667C44.556 2.66667 47.0334 5.0545 47.0334 8C47.0334 10.9455 44.556 13.3333 41.5 13.3333Z"/>
</mask>
<path d="M41.5 0C36.916 0 33.2 3.58167 33.2 8C33.2 12.4183 36.916 16 41.5 16C46.0822 15.9957 49.7956 12.4165 49.8001 8C49.8001 3.58167 46.0841 0 41.5 0ZM41.5 13.3333C38.4441 13.3333 35.9667 10.9455 35.9667 8C35.9667 5.0545 38.4441 2.66667 41.5 2.66667C44.556 2.66667 47.0334 5.0545 47.0334 8C47.0334 10.9455 44.556 13.3333 41.5 13.3333Z" fill="white"/>
<path d="M41.5 16V21L41.5048 21L41.5 16ZM49.8001 8L54.8001 8.00509V8H49.8001ZM41.5 -5C34.3297 -5 28.2 0.648343 28.2 8H38.2C38.2 6.51499 39.5024 5 41.5 5V-5ZM28.2 8C28.2 15.3517 34.3297 21 41.5 21V11C39.5024 11 38.2 9.48501 38.2 8H28.2ZM41.5048 21C48.6699 20.9932 54.7926 15.3506 54.8001 8.00509L44.8001 7.99491C44.7985 9.48243 43.4944 10.9981 41.4953 11L41.5048 21ZM54.8001 8C54.8001 0.648343 48.6704 -5 41.5 -5V5C43.4977 5 44.8001 6.51499 44.8001 8H54.8001ZM41.5 8.33333C41.2921 8.33333 41.1455 8.25631 41.0573 8.17123C40.9722 8.08927 40.9667 8.0317 40.9667 8H30.9667C30.9667 13.8788 35.8578 18.3333 41.5 18.3333V8.33333ZM40.9667 8C40.9667 7.9683 40.9722 7.91073 41.0573 7.82877C41.1455 7.74369 41.2921 7.66667 41.5 7.66667V-2.33333C35.8578 -2.33333 30.9667 2.12118 30.9667 8H40.9667ZM41.5 7.66667C41.708 7.66667 41.8546 7.74369 41.9428 7.82877C42.0279 7.91073 42.0334 7.9683 42.0334 8H52.0334C52.0334 2.12118 47.1423 -2.33333 41.5 -2.33333V7.66667ZM42.0334 8C42.0334 8.0317 42.0279 8.08927 41.9428 8.17123C41.8546 8.25631 41.708 8.33333 41.5 8.33333V18.3333C47.1423 18.3333 52.0334 13.8788 52.0334 8H42.0334Z" fill="white" mask="url(#path-1-inside-1)"/>
<mask id="path-3-inside-2" fill="white">
<path d="M47.0333 17.3333H46.7068L46.4149 17.4733C43.3196 18.9588 39.6804 18.9588 36.585 17.4733L36.2931 17.3333H35.9666C32.1486 17.3376 29.0545 20.3199 29.05 23.9999V31.9999C29.05 34.2091 30.9079 35.9999 33.2 35.9999H49.7999C52.092 35.9999 53.9499 34.2091 53.9499 31.9999V23.9999C53.9454 20.3199 50.8513 17.3376 47.0333 17.3333ZM51.1833 31.9999C51.1833 32.7363 50.5639 33.3333 49.7999 33.3333H33.2C32.436 33.3333 31.8166 32.7363 31.8166 31.9999V23.9999C31.817 21.9013 33.5 20.1596 35.672 20.0106C39.3681 21.6639 43.632 21.6639 47.3279 20.0106C49.4998 20.1596 51.1829 21.9013 51.1833 23.9999V31.9999Z"/>
</mask>
<path d="M47.0333 17.3333H46.7068L46.4149 17.4733C43.3196 18.9588 39.6804 18.9588 36.585 17.4733L36.2931 17.3333H35.9666C32.1486 17.3376 29.0545 20.3199 29.05 23.9999V31.9999C29.05 34.2091 30.9079 35.9999 33.2 35.9999H49.7999C52.092 35.9999 53.9499 34.2091 53.9499 31.9999V23.9999C53.9454 20.3199 50.8513 17.3376 47.0333 17.3333ZM51.1833 31.9999C51.1833 32.7363 50.5639 33.3333 49.7999 33.3333H33.2C32.436 33.3333 31.8166 32.7363 31.8166 31.9999V23.9999C31.817 21.9013 33.5 20.1596 35.672 20.0106C39.3681 21.6639 43.632 21.6639 47.3279 20.0106C49.4998 20.1596 51.1829 21.9013 51.1833 23.9999V31.9999Z" fill="white"/>
<path d="M47.0333 17.3333L47.039 12.3333H47.0333V17.3333ZM46.7068 17.3333V12.3333H45.5697L44.5445 12.825L46.7068 17.3333ZM46.4149 17.4733L44.2526 12.965L44.2516 12.9655L46.4149 17.4733ZM36.585 17.4733L38.7483 12.9655L38.7473 12.965L36.585 17.4733ZM36.2931 17.3333L38.4554 12.825L37.4302 12.3333H36.2931V17.3333ZM35.9666 17.3333V12.3332L35.9609 12.3333L35.9666 17.3333ZM29.05 23.9999L24.05 23.9938V23.9999H29.05ZM53.9499 23.9999H58.9499L58.9499 23.9938L53.9499 23.9999ZM31.8166 23.9999L26.8166 23.9991V23.9999H31.8166ZM35.672 20.0106L37.7136 15.4464L36.5746 14.9369L35.3298 15.0223L35.672 20.0106ZM47.3279 20.0106L47.6702 15.0223L46.4253 14.9369L45.2862 15.4464L47.3279 20.0106ZM51.1833 23.9999H56.1833V23.9991L51.1833 23.9999ZM47.0333 12.3333H46.7068V22.3333H47.0333V12.3333ZM44.5445 12.825L44.2526 12.965L48.5773 21.9815L48.8692 21.8415L44.5445 12.825ZM44.2516 12.9655C42.5238 13.7947 40.4761 13.7947 38.7483 12.9655L34.4216 21.981C38.8846 24.1228 44.1153 24.1228 48.5783 21.981L44.2516 12.9655ZM38.7473 12.965L38.4554 12.825L34.1307 21.8415L34.4226 21.9815L38.7473 12.965ZM36.2931 12.3333H35.9666V22.3333H36.2931V12.3333ZM35.9609 12.3333C29.5606 12.3405 24.058 17.3857 24.05 23.9938L34.05 24.006C34.0509 23.2541 34.7366 22.3347 35.9723 22.3332L35.9609 12.3333ZM24.05 23.9999V31.9999H34.05V23.9999H24.05ZM24.05 31.9999C24.05 37.1424 28.3216 40.9999 33.2 40.9999V30.9999C33.4943 30.9999 34.05 31.2758 34.05 31.9999H24.05ZM33.2 40.9999H49.7999V30.9999H33.2V40.9999ZM49.7999 40.9999C54.6783 40.9999 58.9499 37.1424 58.9499 31.9999H48.9499C48.9499 31.2758 49.5056 30.9999 49.7999 30.9999V40.9999ZM58.9499 31.9999V23.9999H48.9499V31.9999H58.9499ZM58.9499 23.9938C58.9419 17.3857 53.4393 12.3405 47.039 12.3333L47.0276 22.3332C48.2633 22.3347 48.949 23.2541 48.9499 24.006L58.9499 23.9938ZM46.1833 31.9999C46.1833 29.8029 47.9776 28.3333 49.7999 28.3333V38.3333C53.1502 38.3333 56.1833 35.6696 56.1833 31.9999H46.1833ZM49.7999 28.3333H33.2V38.3333H49.7999V28.3333ZM33.2 28.3333C35.0223 28.3333 36.8166 29.8029 36.8166 31.9999H26.8166C26.8166 35.6696 29.8497 38.3333 33.2 38.3333V28.3333ZM36.8166 31.9999V23.9999H26.8166V31.9999H36.8166ZM36.8166 24.0007C36.8165 24.6846 36.3076 24.9787 36.0142 24.9989L35.3298 15.0223C30.6924 15.3404 26.8174 19.1179 26.8166 23.9991L36.8166 24.0007ZM33.6303 24.5748C38.6255 26.8092 44.3746 26.8092 49.3697 24.5747L45.2862 15.4464C42.8894 16.5186 40.1107 16.5187 37.7136 15.4464L33.6303 24.5748ZM46.9857 24.9989C46.6923 24.9787 46.1834 24.6848 46.1833 24.0007L56.1833 23.9991C56.1825 19.1177 52.3072 15.3404 47.6702 15.0223L46.9857 24.9989ZM46.1833 23.9999V31.9999H56.1833V23.9999H46.1833Z" fill="white" mask="url(#path-3-inside-2)"/>
<mask id="path-5-inside-3" fill="white">
<path d="M70.55 44.0002C65.966 44.0002 62.25 47.5819 62.25 52.0002C62.25 56.4186 65.966 60.0002 70.55 60.0002C75.134 60.0002 78.85 56.4186 78.85 52.0002C78.8455 47.5837 75.1321 44.0046 70.55 44.0002ZM70.55 57.3336C67.494 57.3336 65.0167 54.9457 65.0167 52.0002C65.0167 49.0547 67.494 46.6669 70.55 46.6669C73.606 46.6669 76.0833 49.0547 76.0833 52.0002C76.0833 54.9457 73.606 57.3336 70.55 57.3336Z"/>
</mask>
<path d="M70.55 44.0002C65.966 44.0002 62.25 47.5819 62.25 52.0002C62.25 56.4186 65.966 60.0002 70.55 60.0002C75.134 60.0002 78.85 56.4186 78.85 52.0002C78.8455 47.5837 75.1321 44.0046 70.55 44.0002ZM70.55 57.3336C67.494 57.3336 65.0167 54.9457 65.0167 52.0002C65.0167 49.0547 67.494 46.6669 70.55 46.6669C73.606 46.6669 76.0833 49.0547 76.0833 52.0002C76.0833 54.9457 73.606 57.3336 70.55 57.3336Z" fill="white"/>
<path d="M70.55 44.0002L70.5547 39.0002H70.55V44.0002ZM78.85 52.0002H83.85L83.85 51.9952L78.85 52.0002ZM70.55 39.0002C63.3796 39.0002 57.25 44.6486 57.25 52.0002H67.25C67.25 50.5152 68.5523 49.0002 70.55 49.0002V39.0002ZM57.25 52.0002C57.25 59.3519 63.3796 65.0002 70.55 65.0002V55.0002C68.5523 55.0002 67.25 53.4853 67.25 52.0002H57.25ZM70.55 65.0002C77.7204 65.0002 83.85 59.3519 83.85 52.0002H73.85C73.85 53.4853 72.5477 55.0002 70.55 55.0002V65.0002ZM83.85 51.9952C83.8425 44.6497 77.7199 39.007 70.5547 39.0002L70.5453 49.0002C72.5444 49.0021 73.8485 50.5178 73.85 52.0053L83.85 51.9952ZM70.55 52.3336C70.3421 52.3336 70.1955 52.2566 70.1072 52.1715C70.0222 52.0895 70.0167 52.0319 70.0167 52.0002H60.0167C60.0167 57.8791 64.9077 62.3336 70.55 62.3336V52.3336ZM70.0167 52.0002C70.0167 51.9685 70.0222 51.911 70.1072 51.829C70.1955 51.7439 70.3421 51.6669 70.55 51.6669V41.6669C64.9077 41.6669 60.0167 46.1214 60.0167 52.0002H70.0167ZM70.55 51.6669C70.7579 51.6669 70.9045 51.7439 70.9928 51.829C71.0778 51.911 71.0833 51.9685 71.0833 52.0002H81.0833C81.0833 46.1214 76.1923 41.6669 70.55 41.6669V51.6669ZM71.0833 52.0002C71.0833 52.0319 71.0778 52.0895 70.9928 52.1715C70.9045 52.2566 70.7579 52.3336 70.55 52.3336V62.3336C76.1923 62.3336 81.0833 57.8791 81.0833 52.0002H71.0833Z" fill="white" mask="url(#path-5-inside-3)"/>
<mask id="path-7-inside-4" fill="white">
<path d="M76.0834 61.3335H75.7569L75.465 61.4668C72.3696 62.9522 68.7304 62.9522 65.6351 61.4668L65.3432 61.3335H65.0167C61.1987 61.3378 58.1045 64.3202 58.1 68.0002V76.0002C58.1 78.2093 59.958 80.0002 62.25 80.0002H78.85C81.142 80.0002 83 78.2093 83 76.0002V68.0002C82.9955 64.3202 79.9014 61.3378 76.0834 61.3335ZM80.2334 76.0002C80.2334 76.7365 79.614 77.3335 78.85 77.3335H62.25C61.4861 77.3335 60.8667 76.7365 60.8667 76.0002V68.0002C60.867 65.9015 62.55 64.1598 64.7221 64.0108C68.4181 65.6642 72.6819 65.6642 76.378 64.0108C78.55 64.1598 80.233 65.9015 80.2334 68.0002V76.0002Z"/>
</mask>
<path d="M76.0834 61.3335H75.7569L75.465 61.4668C72.3696 62.9522 68.7304 62.9522 65.6351 61.4668L65.3432 61.3335H65.0167C61.1987 61.3378 58.1045 64.3202 58.1 68.0002V76.0002C58.1 78.2093 59.958 80.0002 62.25 80.0002H78.85C81.142 80.0002 83 78.2093 83 76.0002V68.0002C82.9955 64.3202 79.9014 61.3378 76.0834 61.3335ZM80.2334 76.0002C80.2334 76.7365 79.614 77.3335 78.85 77.3335H62.25C61.4861 77.3335 60.8667 76.7365 60.8667 76.0002V68.0002C60.867 65.9015 62.55 64.1598 64.7221 64.0108C68.4181 65.6642 72.6819 65.6642 76.378 64.0108C78.55 64.1598 80.233 65.9015 80.2334 68.0002V76.0002Z" fill="white"/>
<path d="M76.0834 61.3335L76.089 56.3335H76.0834V61.3335ZM75.7569 61.3335V56.3335H74.669L73.6794 56.7855L75.7569 61.3335ZM75.465 61.4668L73.3875 56.9189L73.3445 56.9385L73.3019 56.959L75.465 61.4668ZM65.6351 61.4668L67.7982 56.959L67.7556 56.9385L67.7126 56.9189L65.6351 61.4668ZM65.3432 61.3335L67.4207 56.7855L66.4311 56.3335H65.3432V61.3335ZM65.0167 61.3335L65.0167 56.3335L65.011 56.3335L65.0167 61.3335ZM58.1 68.0002L53.1 67.9941V68.0002H58.1ZM83 68.0002H88L88 67.9941L83 68.0002ZM60.8667 68.0002L55.8667 67.9993V68.0002H60.8667ZM64.7221 64.0108L66.7637 59.4467L65.6247 58.9372L64.3799 59.0226L64.7221 64.0108ZM76.378 64.0108L76.7202 59.0226L75.4754 58.9372L74.3364 59.4467L76.378 64.0108ZM80.2334 68.0002H85.2334V67.9993L80.2334 68.0002ZM76.0834 56.3335H75.7569V66.3335H76.0834V56.3335ZM73.6794 56.7855L73.3875 56.9189L77.5425 66.0148L77.8344 65.8815L73.6794 56.7855ZM73.3019 56.959C71.574 57.7881 69.5261 57.7881 67.7982 56.959L63.4719 65.9747C67.9348 68.1162 73.1653 68.1162 77.6281 65.9747L73.3019 56.959ZM67.7126 56.9189L67.4207 56.7855L63.2657 65.8815L63.5575 66.0148L67.7126 56.9189ZM65.3432 56.3335H65.0167V66.3335H65.3432V56.3335ZM65.011 56.3335C58.6107 56.3408 53.1081 61.3859 53.1 67.9941L63.1 68.0063C63.101 67.2544 63.7867 66.3349 65.0224 66.3335L65.011 56.3335ZM53.1 68.0002V76.0002H63.1V68.0002H53.1ZM53.1 76.0002C53.1 81.1426 57.3717 85.0002 62.25 85.0002V75.0002C62.5444 75.0002 63.1 75.276 63.1 76.0002H53.1ZM62.25 85.0002H78.85V75.0002H62.25V85.0002ZM78.85 85.0002C83.7284 85.0002 88 81.1426 88 76.0002H78C78 75.276 78.5557 75.0002 78.85 75.0002V85.0002ZM88 76.0002V68.0002H78V76.0002H88ZM88 67.9941C87.992 61.3859 82.4894 56.3408 76.089 56.3335L76.0777 66.3335C77.3134 66.3349 77.9991 67.2544 78 68.0063L88 67.9941ZM75.2334 76.0002C75.2334 73.8032 77.0277 72.3335 78.85 72.3335V82.3335C82.2003 82.3335 85.2334 79.6698 85.2334 76.0002H75.2334ZM78.85 72.3335H62.25V82.3335H78.85V72.3335ZM62.25 72.3335C64.0724 72.3335 65.8667 73.8032 65.8667 76.0002H55.8667C55.8667 79.6698 58.8998 82.3335 62.25 82.3335V72.3335ZM65.8667 76.0002V68.0002H55.8667V76.0002H65.8667ZM65.8667 68.001C65.8666 68.6849 65.3576 68.979 65.0642 68.9991L64.3799 59.0226C59.7425 59.3407 55.8675 63.1181 55.8667 67.9993L65.8667 68.001ZM62.6804 68.575C67.6756 70.8094 73.4245 70.8094 78.4197 68.575L74.3364 59.4467C71.9394 60.5189 69.1607 60.5189 66.7637 59.4467L62.6804 68.575ZM76.0358 68.9991C75.7424 68.979 75.2335 68.6849 75.2334 68.001L85.2334 67.9993C85.2326 63.1181 81.3576 59.3407 76.7202 59.0226L76.0358 68.9991ZM75.2334 68.0002V76.0002H85.2334V68.0002H75.2334Z" fill="white" mask="url(#path-7-inside-4)"/>
<mask id="path-9-inside-5" fill="white">
<path d="M12.45 44.0002C7.86594 44.0002 4.14996 47.5819 4.14996 52.0002C4.14996 56.4186 7.86594 60.0002 12.45 60.0002C17.034 60.0002 20.75 56.4186 20.75 52.0002C20.7455 47.5837 17.0321 44.0046 12.45 44.0002ZM12.45 57.3336C9.39401 57.3336 6.91663 54.9457 6.91663 52.0002C6.91663 49.0547 9.39401 46.6669 12.45 46.6669C15.5059 46.6669 17.9833 49.0547 17.9833 52.0002C17.9833 54.9457 15.5059 57.3336 12.45 57.3336Z"/>
</mask>
<path d="M12.45 44.0002C7.86594 44.0002 4.14996 47.5819 4.14996 52.0002C4.14996 56.4186 7.86594 60.0002 12.45 60.0002C17.034 60.0002 20.75 56.4186 20.75 52.0002C20.7455 47.5837 17.0321 44.0046 12.45 44.0002ZM12.45 57.3336C9.39401 57.3336 6.91663 54.9457 6.91663 52.0002C6.91663 49.0547 9.39401 46.6669 12.45 46.6669C15.5059 46.6669 17.9833 49.0547 17.9833 52.0002C17.9833 54.9457 15.5059 57.3336 12.45 57.3336Z" fill="white"/>
<path d="M12.45 44.0002L12.4547 39.0002H12.45V44.0002ZM20.75 52.0002H25.75L25.75 51.9952L20.75 52.0002ZM12.45 39.0002C5.27961 39.0002 -0.850037 44.6486 -0.850037 52.0002H9.14996C9.14996 50.5152 10.4523 49.0002 12.45 49.0002V39.0002ZM-0.850037 52.0002C-0.850037 59.3519 5.27961 65.0002 12.45 65.0002V55.0002C10.4523 55.0002 9.14996 53.4853 9.14996 52.0002H-0.850037ZM12.45 65.0002C19.6203 65.0002 25.75 59.3519 25.75 52.0002H15.75C15.75 53.4853 14.4477 55.0002 12.45 55.0002V65.0002ZM25.75 51.9952C25.7425 44.6497 19.6198 39.007 12.4547 39.0002L12.4452 49.0002C14.4443 49.0021 15.7485 50.5178 15.75 52.0053L25.75 51.9952ZM12.45 52.3336C12.2421 52.3336 12.0955 52.2566 12.0072 52.1715C11.9222 52.0895 11.9166 52.0319 11.9166 52.0002H1.91663C1.91663 57.8791 6.80767 62.3336 12.45 62.3336V52.3336ZM11.9166 52.0002C11.9166 51.9685 11.9222 51.911 12.0072 51.829C12.0955 51.7439 12.2421 51.6669 12.45 51.6669V41.6669C6.80767 41.6669 1.91663 46.1214 1.91663 52.0002H11.9166ZM12.45 51.6669C12.6579 51.6669 12.8045 51.7439 12.8927 51.829C12.9778 51.911 12.9833 51.9685 12.9833 52.0002H22.9833C22.9833 46.1214 18.0923 41.6669 12.45 41.6669V51.6669ZM12.9833 52.0002C12.9833 52.0319 12.9778 52.0895 12.8927 52.1715C12.8045 52.2566 12.6579 52.3336 12.45 52.3336V62.3336C18.0923 62.3336 22.9833 57.8791 22.9833 52.0002H12.9833Z" fill="white" mask="url(#path-9-inside-5)"/>
<mask id="path-11-inside-6" fill="white">
<path d="M17.9833 61.3335H17.6569L17.365 61.4668C14.2696 62.9522 10.6304 62.9522 7.53502 61.4668L7.24313 61.3335H6.91667C3.09867 61.3378 0.00449583 64.3202 0 68.0002V76.0002C0 78.2093 1.85799 80.0002 4.15 80.0002H20.75C23.042 80.0002 24.9 78.2093 24.9 76.0002V68.0002C24.8955 64.3202 21.8013 61.3378 17.9833 61.3335ZM22.1333 76.0002C22.1333 76.7365 21.5139 77.3335 20.75 77.3335H4.15C3.38605 77.3335 2.76667 76.7365 2.76667 76.0002V68.0002C2.76701 65.9015 4.45001 64.1598 6.62202 64.0108C10.3181 65.6642 14.5819 65.6642 18.278 64.0108C20.45 64.1598 22.133 65.9015 22.1333 68.0002V76.0002Z"/>
</mask>
<path d="M17.9833 61.3335H17.6569L17.365 61.4668C14.2696 62.9522 10.6304 62.9522 7.53502 61.4668L7.24313 61.3335H6.91667C3.09867 61.3378 0.00449583 64.3202 0 68.0002V76.0002C0 78.2093 1.85799 80.0002 4.15 80.0002H20.75C23.042 80.0002 24.9 78.2093 24.9 76.0002V68.0002C24.8955 64.3202 21.8013 61.3378 17.9833 61.3335ZM22.1333 76.0002C22.1333 76.7365 21.5139 77.3335 20.75 77.3335H4.15C3.38605 77.3335 2.76667 76.7365 2.76667 76.0002V68.0002C2.76701 65.9015 4.45001 64.1598 6.62202 64.0108C10.3181 65.6642 14.5819 65.6642 18.278 64.0108C20.45 64.1598 22.133 65.9015 22.1333 68.0002V76.0002Z" fill="white"/>
<path d="M17.9833 61.3335L17.989 56.3335H17.9833V61.3335ZM17.6569 61.3335V56.3335H16.5689L15.5794 56.7855L17.6569 61.3335ZM17.365 61.4668L15.2875 56.9189L15.2445 56.9385L15.2019 56.959L17.365 61.4668ZM7.53502 61.4668L9.69814 56.959L9.65552 56.9385L9.61251 56.9189L7.53502 61.4668ZM7.24313 61.3335L9.32063 56.7855L8.33106 56.3335H7.24313V61.3335ZM6.91667 61.3335L6.91667 56.3335L6.91099 56.3335L6.91667 61.3335ZM0 68.0002L-5 67.9941V68.0002H0ZM24.9 68.0002H29.9L29.9 67.9941L24.9 68.0002ZM2.76667 68.0002L-2.23333 67.9993V68.0002H2.76667ZM6.62202 64.0108L8.66366 59.4467L7.52466 58.9372L6.27982 59.0226L6.62202 64.0108ZM18.278 64.0108L18.6202 59.0226L17.3753 58.9372L16.2363 59.4467L18.278 64.0108ZM22.1333 68.0002H27.1333V67.9993L22.1333 68.0002ZM17.9833 56.3335H17.6569V66.3335H17.9833V56.3335ZM15.5794 56.7855L15.2875 56.9189L19.4425 66.0148L19.7344 65.8815L15.5794 56.7855ZM15.2019 56.959C13.4739 57.7881 11.4261 57.7881 9.69814 56.959L5.3719 65.9747C9.83472 68.1162 15.0653 68.1162 19.5281 65.9747L15.2019 56.959ZM9.61251 56.9189L9.32063 56.7855L5.16564 65.8815L5.45752 66.0148L9.61251 56.9189ZM7.24313 56.3335H6.91667V66.3335H7.24313V56.3335ZM6.91099 56.3335C0.510646 56.3408 -4.99192 61.3859 -5 67.9941L5 68.0063C5.00092 67.2544 5.68669 66.3349 6.92234 66.3335L6.91099 56.3335ZM-5 68.0002V76.0002H5V68.0002H-5ZM-5 76.0002C-5 81.1426 -0.728341 85.0002 4.15 85.0002V75.0002C4.44432 75.0002 5 75.276 5 76.0002H-5ZM4.15 85.0002H20.75V75.0002H4.15V85.0002ZM20.75 85.0002C25.6283 85.0002 29.9 81.1426 29.9 76.0002H19.9C19.9 75.276 20.4557 75.0002 20.75 75.0002V85.0002ZM29.9 76.0002V68.0002H19.9V76.0002H29.9ZM29.9 67.9941C29.8919 61.3859 24.3894 56.3408 17.989 56.3335L17.9777 66.3335C19.2133 66.3349 19.8991 67.2544 19.9 68.0063L29.9 67.9941ZM17.1333 76.0002C17.1333 73.8032 18.9276 72.3335 20.75 72.3335V82.3335C24.1003 82.3335 27.1333 79.6698 27.1333 76.0002H17.1333ZM20.75 72.3335H4.15V82.3335H20.75V72.3335ZM4.15 72.3335C5.97238 72.3335 7.76667 73.8032 7.76667 76.0002H-2.23333C-2.23333 79.6698 0.799724 82.3335 4.15 82.3335V72.3335ZM7.76667 76.0002V68.0002H-2.23333V76.0002H7.76667ZM7.76667 68.001C7.76655 68.6849 7.2576 68.979 6.96421 68.9991L6.27982 59.0226C1.64242 59.3407 -2.23253 63.1181 -2.23333 67.9993L7.76667 68.001ZM4.58038 68.575C9.57554 70.8094 15.3245 70.8094 20.3196 68.575L16.2363 59.4467C13.8393 60.5189 11.0607 60.5189 8.66366 59.4467L4.58038 68.575ZM17.9358 68.9991C17.6424 68.979 17.1334 68.6849 17.1333 68.001L27.1333 67.9993C27.1325 63.1181 23.2576 59.3407 18.6202 59.0226L17.9358 68.9991ZM17.1333 68.0002V76.0002H27.1333V68.0002H17.1333Z" fill="white" mask="url(#path-11-inside-6)"/>
<path d="M32.4546 74.5186L31.8689 73.3548L32.4546 74.5186Z" fill="white" stroke="white" stroke-width="5"/>
<mask id="path-14-inside-7" fill="white">
<path d="M78.4447 35.0574C77.9045 34.5369 77.0288 34.5369 76.4886 35.0574L74.5312 36.9441C73.3858 25.2657 65.6933 15.1314 54.4923 10.5441C53.7894 10.2554 52.9768 10.5706 52.6773 11.2481C52.3778 11.9256 52.7048 12.7087 53.4077 12.9974C63.4559 17.1136 70.4407 26.1089 71.7051 36.5614L70.1447 35.0574C69.5952 34.5457 68.7195 34.5604 68.1886 35.0901C67.6709 35.6067 67.6709 36.4259 68.1886 36.9427L72.3386 40.9427C72.8781 41.4641 73.7541 41.4652 74.295 40.9451C74.2959 40.9442 74.2968 40.9434 74.2975 40.9427L78.4475 36.9427C78.9868 36.4214 78.9856 35.5774 78.4447 35.0574Z"/>
</mask>
<path d="M78.4447 35.0574C77.9045 34.5369 77.0288 34.5369 76.4886 35.0574L74.5312 36.9441C73.3858 25.2657 65.6933 15.1314 54.4923 10.5441C53.7894 10.2554 52.9768 10.5706 52.6773 11.2481C52.3778 11.9256 52.7048 12.7087 53.4077 12.9974C63.4559 17.1136 70.4407 26.1089 71.7051 36.5614L70.1447 35.0574C69.5952 34.5457 68.7195 34.5604 68.1886 35.0901C67.6709 35.6067 67.6709 36.4259 68.1886 36.9427L72.3386 40.9427C72.8781 41.4641 73.7541 41.4652 74.295 40.9451C74.2959 40.9442 74.2968 40.9434 74.2975 40.9427L78.4475 36.9427C78.9868 36.4214 78.9856 35.5774 78.4447 35.0574Z" fill="white"/>
<path d="M78.4447 35.0574L74.9754 38.658L74.9794 38.6618L78.4447 35.0574ZM76.4886 35.0574L73.0194 31.4569L73.0188 31.4574L76.4886 35.0574ZM74.5312 36.9441L69.5551 37.4321L70.5634 47.7129L78.0011 40.5441L74.5312 36.9441ZM54.4923 10.5441L52.5928 15.1692L52.5973 15.1711L54.4923 10.5441ZM53.4077 12.9974L51.5083 17.6226L51.5124 17.6242L53.4077 12.9974ZM71.7051 36.5614L68.2352 40.1614L78.3571 49.9175L76.6689 35.961L71.7051 36.5614ZM70.1447 35.0574L73.6146 31.4574L73.5835 31.4275L73.5519 31.3981L70.1447 35.0574ZM68.1886 35.0901L64.6571 31.5506L64.6567 31.551L68.1886 35.0901ZM68.1886 36.9427L64.6561 40.4813L64.6872 40.5123L64.7188 40.5427L68.1886 36.9427ZM72.3386 40.9427L75.8131 37.3472L75.8085 37.3428L72.3386 40.9427ZM74.295 40.9451L77.7609 44.549L77.7649 44.5451L74.295 40.9451ZM74.2975 40.9427L77.7673 44.5427L74.2975 40.9427ZM78.4475 36.9427L81.9173 40.5427L81.9225 40.5377L78.4475 36.9427ZM81.914 31.4569C79.4373 29.0704 75.4961 29.0704 73.0194 31.4569L79.9579 38.658C78.5616 40.0034 76.3717 40.0034 74.9754 38.658L81.914 31.4569ZM73.0188 31.4574L71.0614 33.3441L78.0011 40.5441L79.9585 38.6574L73.0188 31.4574ZM79.5074 36.456C78.1741 22.8619 69.235 11.1788 56.3872 5.91707L52.5973 15.1711C62.1515 19.084 68.5976 27.6696 69.5551 37.4321L79.5074 36.456ZM56.3917 5.91891C53.2898 4.64505 49.5457 5.96559 48.1042 9.22651L57.2504 13.2696C56.4079 15.1756 54.2889 15.8658 52.5928 15.1692L56.3917 5.91891ZM48.1042 9.22651C46.617 12.5908 48.3192 16.3129 51.5083 17.6226L55.3072 8.37224C57.0904 9.10459 58.1386 11.2604 57.2504 13.2696L48.1042 9.22651ZM51.5124 17.6242C59.9489 21.0802 65.7029 28.5773 66.7413 37.1618L76.6689 35.961C75.1786 23.6405 66.9629 13.1469 55.3031 8.37057L51.5124 17.6242ZM75.175 32.9614L73.6146 31.4574L66.6748 38.6574L68.2352 40.1614L75.175 32.9614ZM73.5519 31.3981C71.0375 29.0569 67.0957 29.1174 64.6571 31.5506L71.7202 38.6296C70.3433 40.0034 68.1528 40.0346 66.7375 38.7168L73.5519 31.3981ZM64.6567 31.551C62.1813 34.0214 62.1821 38.0115 64.6561 40.4813L71.7212 33.4042C73.1598 34.8404 73.1606 37.1921 71.7206 38.6292L64.6567 31.551ZM64.7188 40.5427L68.8688 44.5427L75.8085 37.3428L71.6585 33.3428L64.7188 40.5427ZM68.8642 44.5383C71.3379 46.9288 75.2808 46.9341 77.7609 44.549L70.8292 37.3412C72.2275 35.9964 74.4184 35.9994 75.8131 37.3472L68.8642 44.5383ZM77.7649 44.5451C77.7637 44.5462 77.7628 44.5471 77.7633 44.5466C77.7634 44.5466 77.7639 44.546 77.7645 44.5455C77.765 44.5449 77.7661 44.5439 77.7673 44.5427L70.8276 37.3428C70.829 37.3414 70.8303 37.3401 70.8293 37.3411C70.829 37.3414 70.8272 37.3431 70.8252 37.3451L77.7649 44.5451ZM77.7673 44.5427L81.9173 40.5427L74.9776 33.3428L70.8276 37.3428L77.7673 44.5427ZM81.9225 40.5377C84.4996 38.0466 84.4926 33.9359 81.91 31.453L74.9794 38.6618C73.4785 37.2189 73.474 34.7962 74.9724 33.3478L81.9225 40.5377Z" fill="white" mask="url(#path-14-inside-7)"/>
<mask id="path-16-inside-8" fill="white">
<path d="M30.3932 11.5454C30.3887 11.4675 30.3768 11.3904 30.3572 11.3147C30.3572 11.3027 30.342 11.2947 30.3365 11.2814C30.3309 11.268 30.3365 11.2587 30.3365 11.248C30.2988 11.1832 30.2552 11.1215 30.2064 11.064C30.1616 10.9859 30.1087 10.9122 30.0487 10.844C29.9669 10.7742 29.8763 10.7147 29.779 10.6667C29.7304 10.6269 29.6785 10.5907 29.6241 10.5587L24.0907 8.12271C23.384 7.84305 22.5758 8.16855 22.2856 8.84971C22.0112 9.49388 22.2974 10.2332 22.9425 10.5467L25.8074 11.8094C15.0221 17.3729 8.29218 28.2094 8.29996 40.0001C8.29996 40.7364 8.91935 41.3334 9.6833 41.3334C10.4472 41.3334 11.0666 40.7364 11.0666 40.0001C11.0597 29.6179 16.7558 20.008 26.0384 14.7414L25.0383 16.756C24.7085 17.4189 24.9975 18.2139 25.6843 18.5334C25.8709 18.6212 26.0756 18.6669 26.2833 18.6667C26.8145 18.666 27.2983 18.3722 27.5283 17.9107L30.295 12.3467C30.295 12.3334 30.295 12.3187 30.306 12.3054C30.342 12.2142 30.3671 12.1194 30.3807 12.0227C30.4044 11.9509 30.4221 11.8774 30.4333 11.8027C30.4286 11.7159 30.4153 11.6297 30.3932 11.5454Z"/>
</mask>
<path d="M30.3932 11.5454C30.3887 11.4675 30.3768 11.3904 30.3572 11.3147C30.3572 11.3027 30.342 11.2947 30.3365 11.2814C30.3309 11.268 30.3365 11.2587 30.3365 11.248C30.2988 11.1832 30.2552 11.1215 30.2064 11.064C30.1616 10.9859 30.1087 10.9122 30.0487 10.844C29.9669 10.7742 29.8763 10.7147 29.779 10.6667C29.7304 10.6269 29.6785 10.5907 29.6241 10.5587L24.0907 8.12271C23.384 7.84305 22.5758 8.16855 22.2856 8.84971C22.0112 9.49388 22.2974 10.2332 22.9425 10.5467L25.8074 11.8094C15.0221 17.3729 8.29218 28.2094 8.29996 40.0001C8.29996 40.7364 8.91935 41.3334 9.6833 41.3334C10.4472 41.3334 11.0666 40.7364 11.0666 40.0001C11.0597 29.6179 16.7558 20.008 26.0384 14.7414L25.0383 16.756C24.7085 17.4189 24.9975 18.2139 25.6843 18.5334C25.8709 18.6212 26.0756 18.6669 26.2833 18.6667C26.8145 18.666 27.2983 18.3722 27.5283 17.9107L30.295 12.3467C30.295 12.3334 30.295 12.3187 30.306 12.3054C30.342 12.2142 30.3671 12.1194 30.3807 12.0227C30.4044 11.9509 30.4221 11.8774 30.4333 11.8027C30.4286 11.7159 30.4153 11.6297 30.3932 11.5454Z" fill="white"/>
<path d="M30.3932 11.5454L25.4015 11.8337L25.4303 12.3319L25.557 12.8146L30.3932 11.5454ZM30.3572 11.3147H25.3572V11.9499L25.516 12.5649L30.3572 11.3147ZM30.3365 11.248H35.3365V9.90012L34.6589 8.73484L30.3365 11.248ZM30.2064 11.064L25.8681 13.5497L26.0962 13.9479L26.3931 14.298L30.2064 11.064ZM30.0487 10.844L33.8019 7.54043L33.5664 7.27293L33.2954 7.04152L30.0487 10.844ZM29.779 10.6667L26.6091 14.5334L27.053 14.8974L27.5679 15.1512L29.779 10.6667ZM29.6241 10.5587L32.1568 6.24765L31.9054 6.09999L31.6387 5.98255L29.6241 10.5587ZM24.0907 8.12271L26.1053 3.54655L26.0186 3.50838L25.9305 3.47352L24.0907 8.12271ZM22.2856 8.84971L26.8856 10.8093L26.8857 10.8092L22.2856 8.84971ZM22.9425 10.5467L20.7572 15.0439L20.8409 15.0845L20.926 15.122L22.9425 10.5467ZM25.8074 11.8094L28.0996 16.253L37.401 11.455L27.824 7.23405L25.8074 11.8094ZM8.29996 40.0001H13.3L13.3 39.9968L8.29996 40.0001ZM11.0666 40.0001H16.0666L16.0666 39.9967L11.0666 40.0001ZM26.0384 14.7414L30.517 16.9647L37.7823 2.32965L23.5711 10.3926L26.0384 14.7414ZM25.0383 16.756L29.5149 18.9831L29.5168 18.9793L25.0383 16.756ZM25.6843 18.5334L27.8139 14.0096L27.8036 14.0047L27.7932 13.9999L25.6843 18.5334ZM26.2833 18.6667L26.2873 23.6667L26.2896 23.6667L26.2833 18.6667ZM27.5283 17.9107L32.0034 20.1408L32.0054 20.1369L27.5283 17.9107ZM30.295 12.3467L34.772 14.5729L35.295 13.5212V12.3467H30.295ZM30.306 12.3054L34.1534 15.4987L34.6639 14.8838L34.9572 14.1403L30.306 12.3054ZM30.3807 12.0227L25.6323 10.4567L25.4924 10.8809L25.4299 11.3231L30.3807 12.0227ZM30.4333 11.8027L35.3776 12.547L35.4534 12.0431L35.4261 11.5343L30.4333 11.8027ZM35.3849 11.2571C35.3619 10.8601 35.3007 10.4606 35.1984 10.0646L25.516 12.5649C25.4528 12.3202 25.4154 12.075 25.4015 11.8337L35.3849 11.2571ZM35.3572 11.3147C35.3572 10.2002 34.9912 9.34185 34.6952 8.82431C34.4318 8.36367 34.1477 8.04721 34.1209 8.01642C34.1125 8.00683 34.1057 7.99901 34.1013 7.99402C34.0971 7.98931 34.0937 7.98543 34.0934 7.98513C34.09 7.98128 34.1004 7.99304 34.112 8.00632C34.1355 8.03319 34.1997 8.10706 34.2771 8.2059C34.4266 8.39658 34.7176 8.79378 34.9546 9.36487L25.7184 13.1979C25.9581 13.7757 26.2531 14.1788 26.4069 14.3752C26.4866 14.4768 26.5531 14.5534 26.5789 14.5829C26.5917 14.5975 26.6032 14.6106 26.601 14.6081C26.601 14.6081 26.6008 14.6079 26.6005 14.6076C26.6003 14.6073 26.5999 14.6068 26.5994 14.6063C26.5984 14.6051 26.5968 14.6034 26.5949 14.6011C26.591 14.5968 26.5847 14.5896 26.577 14.5807C26.5547 14.5551 26.2747 14.2437 26.0143 13.7883C25.7214 13.2761 25.3572 12.4232 25.3572 11.3147H35.3572ZM34.9546 9.36487C35.1533 9.84375 35.2709 10.3387 35.3145 10.8292C35.3566 11.303 35.3216 11.6855 35.2929 11.9067C35.2792 12.0123 35.265 12.0939 35.2607 12.1183C35.2486 12.1882 35.2647 12.0956 35.2671 12.0811C35.282 11.992 35.3365 11.6673 35.3365 11.248H25.3365C25.3365 10.8341 25.3902 10.5146 25.4043 10.4307C25.4062 10.4188 25.4219 10.3287 25.4093 10.4012C25.4046 10.4282 25.3899 10.5125 25.3759 10.6207C25.3465 10.8473 25.3111 11.2353 25.3538 11.7149C25.3979 12.2112 25.5169 12.7123 25.7184 13.1979L34.9546 9.36487ZM34.6589 8.73484C34.4725 8.41412 34.2583 8.11141 34.0198 7.83014L26.3931 14.298C26.2521 14.1317 26.1251 13.9523 26.014 13.7613L34.6589 8.73484ZM34.5448 8.57839C34.3292 8.20206 34.0789 7.85517 33.8019 7.54043L26.2956 14.1477C26.1385 13.9693 25.9941 13.7697 25.8681 13.5497L34.5448 8.57839ZM33.2954 7.04152C32.8932 6.69811 32.4538 6.41082 31.9901 6.18219L27.5679 15.1512C27.2989 15.0186 27.0407 14.8503 26.8021 14.6466L33.2954 7.04152ZM32.9489 6.79998C32.699 6.59509 32.434 6.41049 32.1568 6.24765L27.0913 14.8698C26.9231 14.7709 26.7618 14.6587 26.6091 14.5334L32.9489 6.79998ZM31.6387 5.98255L26.1053 3.54655L22.0761 12.6989L27.6094 15.1349L31.6387 5.98255ZM25.9305 3.47352C22.8142 2.2403 19.0845 3.60625 17.6856 6.89025L26.8857 10.8092C26.0671 12.7308 23.9538 13.4458 22.2509 12.7719L25.9305 3.47352ZM17.6856 6.89009C16.3257 10.0825 17.8105 13.6119 20.7572 15.0439L25.1279 6.04956C26.7843 6.85449 27.6968 8.90524 26.8856 10.8093L17.6856 6.89009ZM20.926 15.122L23.7909 16.3847L27.824 7.23405L24.9591 5.97139L20.926 15.122ZM23.5152 7.36575C11.1273 13.7559 3.2909 26.2721 3.29996 40.0034L13.3 39.9968C13.2935 30.1467 18.9169 20.9899 28.0996 16.253L23.5152 7.36575ZM3.29996 40.0001C3.29996 43.6697 6.33302 46.3334 9.6833 46.3334V36.3334C11.5057 36.3334 13.3 37.8031 13.3 40.0001H3.29996ZM9.6833 46.3334C13.0336 46.3334 16.0666 43.6697 16.0666 40.0001H6.06663C6.06663 37.8031 7.86091 36.3334 9.6833 36.3334V46.3334ZM16.0666 39.9967C16.061 31.4771 20.7352 23.4989 28.5058 19.0902L23.5711 10.3926C12.7763 16.5172 6.05847 27.7587 6.06663 40.0034L16.0666 39.9967ZM21.5599 12.5181L20.5598 14.5328L29.5168 18.9793L30.517 16.9647L21.5599 12.5181ZM20.5617 14.529C18.9294 17.8101 20.4406 21.6086 23.5754 23.0669L27.7932 13.9999C29.5544 14.8192 30.4877 17.0277 29.5149 18.9831L20.5617 14.529ZM23.5547 23.0572C24.4114 23.4605 25.3451 23.6675 26.2873 23.6667L26.2793 13.6667C26.8062 13.6663 27.3304 13.7819 27.8139 14.0096L23.5547 23.0572ZM26.2896 23.6667C28.6427 23.6638 30.897 22.3611 32.0034 20.1408L23.0532 15.6806C23.6996 14.3834 24.9863 13.6683 26.277 13.6667L26.2896 23.6667ZM32.0054 20.1369L34.772 14.5729L25.8179 10.1205L23.0512 15.6845L32.0054 20.1369ZM35.295 12.3467C35.295 12.2079 35.426 13.9655 34.1534 15.4987L26.4586 9.11203C25.8319 9.86708 25.525 10.6797 25.3913 11.3564C25.3299 11.6667 25.3095 11.9242 25.3014 12.0866C25.2973 12.1688 25.2959 12.2359 25.2954 12.2781C25.2951 12.2995 25.295 12.317 25.295 12.3281C25.295 12.3337 25.295 12.3384 25.295 12.3414C25.295 12.3442 25.295 12.3466 25.295 12.3467H35.295ZM34.9572 14.1403C35.1365 13.6857 35.2626 13.2099 35.3315 12.7223L25.4299 11.3231C25.4715 11.0288 25.5475 10.7427 25.6549 10.4704L34.9572 14.1403ZM35.1292 13.5887C35.2395 13.2542 35.3236 12.9059 35.3776 12.547L25.489 11.0584C25.5206 10.8488 25.5693 10.6476 25.6323 10.4567L35.1292 13.5887ZM35.4261 11.5343C35.4036 11.1153 35.3389 10.6935 35.2294 10.2761L25.557 12.8146C25.4917 12.5659 25.4537 12.3165 25.4405 12.0712L35.4261 11.5343Z" fill="white" mask="url(#path-16-inside-8)"/>
</g>
<defs>
<clipPath id="clip0">
<rect width="83" height="80" fill="white"/>
</clipPath>
</defs>
</svg>
